<?xml version="1.0" encoding="utf-8"?>
<!-- Generator: Adobe Illustrator 22.0.1, SVG Export Plug-In . SVG Version: 6.00 Build 0)  -->
<svg version="1.1" id="Capa_1" xmlns="http://www.w3.org/2000/svg" xmlns:xlink="http://www.w3.org/1999/xlink" x="0px" y="0px"
	 viewBox="0 0 40.9 51.8" style="enable-background:new 0 0 40.9 51.8;" xml:space="preserve">
<style type="text/css">
	.st0{fill:#FFFFFF;}
</style>
<g>
	<g>
		<circle class="st0" cx="30.9" cy="4.8" r="4.8"/>
		<path class="st0" d="M0.6,46.2C6.4,37.6,13,26.5,14.1,24.6c0.1-0.3,0.2-0.7,0.4-1c1.3-2.6,2.7-5.1,4.1-7.6c-1.5,0.1-3,0.2-4.5,0.3
			c-1,2-2,4-3.1,6c-1.6,3.2-6.5,0.4-4.9-2.8c1.3-2.6,2.9-8.4,6.3-8.7c3.6-0.3,7.2-0.6,10.8-0.8c0.1,0,0.2,0,0.2,0
			c2.7-0.7,5.9,1.2,6.5,4c1.8,4,4.5,7.1,8.9,8.4c3.5,1,2,6.4-1.5,5.4c-4.4-1.3-7.5-3.8-9.9-7.1c-1.4,2.6-2.9,5.2-4.2,7.8
			c3,2.1,5.6,4.5,7.9,7.4c0.6,0.8,0.7,1.6,0.5,2.3c0,0.3,0,0.5-0.1,0.9c-0.9,3.5-1.8,6.9-2.6,10.4c-0.9,3.7-6.8,2.6-5.8-1.1
			c0.8-3.3,1.7-6.6,2.5-9.9c-2.1-2.5-4.6-4.6-7.4-6.2c-0.7-0.4-1.1-0.9-1.3-1.5c-3.9,5.9-7.7,14.1-11.6,19.1
			C3,52.9-1.7,49.2,0.6,46.2z"/>
	</g>
</g>
</svg>
